<?xml version="1.0" encoding="utf-8"?>
<!-- Generator: Adobe Illustrator 21.1.0, SVG Export Plug-In . SVG Version: 6.00 Build 0)  -->
<svg version="1.1" id="Layer_1" xmlns="http://www.w3.org/2000/svg" xmlns:xlink="http://www.w3.org/1999/xlink" x="0px" y="0px"
	 viewBox="0 0 538.6 445.4" style="enable-background:new 0 0 538.6 445.4;" xml:space="preserve">
<style type="text/css">
	.st0{fill:#9C824A;stroke:#9C824A;stroke-width:0.79;stroke-miterlimit:282;}
	.st1{fill:#023474;stroke:#023474;stroke-width:0.79;stroke-miterlimit:282;}
	.st2{fill:#FFFFFF;stroke:#FFFFFF;stroke-width:0.79;stroke-miterlimit:282;}
	.st3{fill:#EF0107;stroke:#EF0107;stroke-width:0.79;stroke-miterlimit:282;}
	.st4{fill:#DB0007;stroke:#DB0007;stroke-width:0.79;stroke-miterlimit:282;}
	.st5{fill:#FFFFFF;}
	.st6{fill:#9C824A;}
	.st7{fill:#EF0107;stroke:#EF0107;stroke-width:0.31;stroke-miterlimit:282;}
	.st8{fill:#DB0007;stroke:#DB0007;stroke-width:0.31;stroke-miterlimit:282;}
	.st9{fill:#DB0007;}
	.st10{fill:#FFFFFF;stroke:#FFFFFF;stroke-width:0.31;stroke-miterlimit:282;}
</style>
<title>arsenal-logo-vector</title>
<g>
	<path class="st0" d="M269,0C223.9,0,140.5,11.8,98.2,36.3C42.3,234.4,118.3,368.9,269,445.4c150.7-76.5,226.7-211.7,170.8-409.1
		C397.5,11.6,314.3,0,269,0z"/>
	<path class="st1" d="M269,12.7c-44.4,0-94.3,5.8-159.7,32.4C60.5,218,117.1,356.4,269,432c152.1-75.6,208.5-214,159.7-386.9
		C363.3,18.3,313.4,12.7,269,12.7L269,12.7z"/>
	<path class="st2" d="M268.8,12.5c-44.1,0-91.5,6.5-134.3,22.7c-44.4,177.1-11.6,306.3,134.8,396.6L268.8,12.5L268.8,12.5z
		 M269.2,432c146.3-90.4,178.9-219.6,134.5-396.6C361,19.2,313.6,12.7,269.5,12.7L269.2,432z"/>
	<path class="st3" d="M269.2,12.5c-44.4,0-89.4,6.7-126,19.4c-46,185.6-9,310.6,126,396.4V12.5L269.2,12.5z"/>
	<path class="st4" d="M269.2,12.5c44.4,0,89.4,6.7,126,19.4c46,185.6,9,310.6-126,396.4V12.5L269.2,12.5z"/>
	<path class="st5" d="M211.7,292.4c-19.6,13.4-35.1,18.3-53.4,23.1l-10.9-17.1c19-9.7,36.1-22.2,51.3-37.2
		C200.1,277.8,208,289.6,211.7,292.4L211.7,292.4z"/>
	<path class="st6" d="M209.1,291.7c-18.5,12.7-44.6,21.7-74.2,25.9l-6-9.2c25.4-9.5,49.9-23.8,68.9-43.7
		C199.7,274.4,203.6,283.6,209.1,291.7z"/>
	<path class="st5" d="M159.4,213.8c-0.2,7.2-6.2,12.7-13.4,12.3c-6.7-0.2-12-5.5-12.3-12.3l0,0c0.2-7.2,6.2-12.7,13.4-12.3
		C153.9,201.6,159.2,207.1,159.4,213.8z"/>
	<path class="st5" d="M158.1,188.4v48.8h38.4c2.5-16.4,11.8-33.7,32.8-48.8H158.1"/>
	<path class="st5" d="M159.7,236.9c-8.6,0-15.7-10.6-15.7-24c0-13.4,6.7-24.5,15.3-24.5h0.2"/>
	<path class="st6" d="M154.1,213.8c0.5,4.9-3,9.2-8.1,9.9c-4.9,0.5-9.2-3-9.9-8.1c0-0.7,0-1.2,0-1.8l0,0c-0.5-4.9,3-9.2,8.1-9.9
		c4.9-0.5,9.2,3,9.9,8.1C154.1,212.4,154.1,213.1,154.1,213.8z"/>
	<path class="st6" d="M159.2,190.9v43.7h38.1c3-14.6,10.4-30,28.9-43.7H159.2"/>
	<path class="st6" d="M160.6,234.6c-8.1,0.2-14.6-9.5-14.8-21.5c-0.2-12,6.5-22,14.3-22.2h0.5"/>
	<path class="st5" d="M341.8,248.5c0,40.7-32.8,73.5-73.5,73.5c-40.7,0-73.5-32.8-73.5-73.5l0,0l0,0c0-40.7,32.8-73.5,73.5-73.5
		C309,175,341.8,207.8,341.8,248.5C341.8,248.2,341.8,248.2,341.8,248.5z"/>
	<path class="st6" d="M338.1,248.5c0,38.4-31.2,69.6-69.6,69.6S199,286.8,199,248.5l0,0c0-38.4,31.2-69.6,69.6-69.6
		C306.9,178.7,338.1,209.9,338.1,248.5z"/>
	<path class="st5" d="M326.6,248.5c0,32.1-25.9,58-58,58s-58-25.9-58-58l0,0c0-32.1,25.9-58,58-58
		C300.4,190.2,326.6,216.3,326.6,248.5z"/>
	<path class="st6" d="M322.6,248.5c0,30-24.3,54.3-54.3,54.3S214,278.5,214,248.5l0,0c0-30,24.3-54.3,54.3-54.3
		C298.4,194.2,322.6,218.4,322.6,248.5z"/>
	<path class="st5" d="M291,248.5c0,12.5-10.2,22.7-22.7,22.7s-22.7-10.2-22.7-22.7l0,0l0,0c0-12.5,10.2-22.7,22.7-22.7
		S291,236,291,248.5L291,248.5z"/>
	<path class="st6" d="M288.4,248.5c-0.5,11.1-9.7,19.6-20.6,19.2c-10.4-0.5-19-8.8-19.2-19.2l0,0c0.5-11.1,9.7-19.6,20.6-19.2
		C279.6,229.5,288,237.8,288.4,248.5L288.4,248.5z"/>
	<path class="st5" d="M278.7,248.5c0,5.5-4.6,10.2-10.2,10.2c-5.5,0-10.2-4.6-10.2-10.2l0,0l0,0c0-5.5,4.6-10.2,10.2-10.2
		C274.1,238.1,278.7,242.7,278.7,248.5C278.7,248.2,278.7,248.2,278.7,248.5z"/>
	<path class="st6" d="M275.7,248.5c0,4.2-3.2,7.4-7.4,7.4c-4.2,0-7.4-3.2-7.4-7.4l0,0c0-4.2,3.2-7.4,7.4-7.4
		C272.5,240.8,275.7,244.3,275.7,248.5z"/>
	<rect x="260.7" y="192.8" class="st5" width="15.5" height="36.1"/>
	<rect x="263" y="187.7" class="st6" width="10.6" height="45.8"/>
	<polygon class="st5" points="311.3,213.1 319.8,226.1 289.6,245.7 281.2,232.8 	"/>
	<polygon class="st6" points="317.1,212.4 322.9,221.4 284.5,246.4 278.7,237.4 	"/>
	<polygon class="st5" points="246.8,251.2 254.9,264.4 224.6,283.6 216.3,270.4 	"/>
	<polygon class="st6" points="251.9,250.6 257.7,259.6 219.1,284.1 213.3,275.1 	"/>
	<rect x="260.7" y="269" class="st5" width="15.5" height="36.1"/>
	<rect x="263" y="264" class="st6" width="10.6" height="45.8"/>
	<path class="st7" d="M253.3,265.1c2.1,1.8,4.6,3.5,7.2,4.6v32.1c-13.4-1.6-25.7-8.6-34-19.2L253.3,265.1"/>
	<path class="st8" d="M283.3,265.3c-2.1,1.8-4.6,3.5-7.2,4.6v32.1c13.4-1.6,25.7-8.6,34-19.2L283.3,265.3"/>
	<path class="st9" d="M290.7,251.9l31.9-3.9c0,7.4-1.4,14.8-4.4,21.7L290.7,251.9"/>
	<path class="st10" d="M290.7,251.7c0-0.5,0-0.9,0.2-2.3l31.4-4.2c0,0.9,0,1.8,0,2.8L290.7,251.7L290.7,251.7z"/>
	<path class="st5" d="M337.4,225.1h41.4c-1.4,4.9-2.5,9.9-8.6,12c-9.5,3.5-29.1,6.9-29.1,6.9C340.4,237.8,339.3,231.4,337.4,225.1
		L337.4,225.1z"/>
	<path class="st5" d="M308.5,187.5h107.7l-3.7,39.3l-73.7,3.9C334.9,213.1,321.5,196.5,308.5,187.5L308.5,187.5z"/>
	<path class="st6" d="M312.5,190.5H450l-5.1,32.1l-106.8,5.3C333.9,212,324.2,200.2,312.5,190.5L312.5,190.5z"/>
	<path class="st6" d="M337.4,225.1h37.9c-1.2,4.4-2.1,8.3-7.6,10.2c-8.8,3.2-26.8,5.8-26.8,5.8C340,235.8,338.8,230.4,337.4,225.1
		L337.4,225.1z"/>
	<path class="st6" d="M295.6,130.4c0,1.8-0.5,6.5-0.5,7.9h21.3c-1.2-6.5-1.8-13.2-2.1-19.6c0,0.5-0.5-12.3-0.5-12.3
		c0-0.9,0.2-1.8,0.9-2.5s1.4-0.9,2.3-0.9c0.9-0.5,2.5-0.5,2.8,3l0.5,13.2c0.2,6.5,0.2,12.9-0.5,19.2h20.6c-0.2-1.8-0.7-6.2-0.9-7.4
		c2.5,5.8,8.1,8.8,15.7,8.8c3.7,0,7.4-1.2,10.4-3.5c0.2,0.7,0.7,1.4,1.2,2.1h38.1c-1.6-6.5-2.8-12.9-3.2-19.6l-5.3-42.8l-19.6-3.5
		c1.6,6.5,2.8,12.9,3.5,19.6l3,27.7c0.7,5.3,0.9,10.4,0.9,15.7v0.5l-0.7-1.8c-1.6-4.6-2.5-9.5-2.8-14.3l-0.7-8.8
		c-1.2-13.9-8.8-20.1-25.4-20.1c-4.9,0-9.5,0.7-14.1,1.8l1.2,15.7l4.4-2.5c3-2.1,6.2-3,9.7-3c2.1-0.2,4.2,0.7,5.1,2.5
		c-3.7,0.5-7.2,1.4-10.6,3c-5.1,2.1-9.2,6-11.3,10.9v-0.5l-0.5-14.3c-0.2-9.2-6.2-15.3-15.5-15.3c-3.9,0-7.9,1.2-11.1,3.5l-0.5-1.4
		l-0.7-1.8l-17.1-0.9c0.9,4.9,1.6,9.9,2.1,14.8c-1.2-5.1-3.7-9.5-7.9-12.7c-3.7-2.3-8.1-3.5-12.7-3.5c-6.5,0-12.5,2.5-17.1,6.9
		c-4.6,4.6-6.9,10.9-6.9,17.6c-1.8-1.8-3.9-3.5-6.5-4.4l-7.6-3.7h-0.5c-1.8-0.9-2.1-1.4-2.1-1.6c0.2-0.9,2.1-1.8,4.4-1.8
		c4.2,0.5,8.1,1.6,11.6,3.9l0.5-14.1c-3.9-1.6-8.1-2.3-12.3-2.1c-4.6,0-9.2,0.9-13.4,3c-1.4,0.9-2.3,1.8-3.5,2.5l0.2-3.9
		c-4.4-0.9-9.2-0.9-15.3,4.9c-0.2-0.5-0.5-2.5-0.9-3.5l-18.3,0.7c1.2,6.2,1.6,12.7,1.2,19.2l-0.5,6.9v0.9c-0.2,3.5-0.5,7.4-0.7,10.9
		c-1.4-4.9-3.2-11.3-4.4-16.6l-9-41.1l-25.9,3.9c0.2,0.9,0.7,2.1,0.7,3c0.2,1.8,0.2,5.3-2.3,12.7c-4.2,11.8-10.2,29.8-15.9,42.3
		c-0.7,1.8-2.3,4.4-2.3,4.4h20.3c0.7-4.2,1.6-8.3,3-12.3c2.8,0,9.9,0,13.4-0.5c0.7,3.2,1.4,6.5,1.6,9.7l0.2,3h40.4
		c-0.7-6.7-0.7-13.4-0.2-20.1c0.5-5.8,1.4-9.5,3.9-11.8c1.4-1.6,3.2-2.5,5.3-2.5c-0.2,7.9,4.9,11.3,9.2,13.6l8.1,3.9
		c2.8,1.8,2.8,2.1,2.8,3c-0.2,1.4-2.3,1.8-4.4,1.8c-4.2,0-9.9-2.5-16.4-9.5l-0.5,18.3c5.3,2.5,11.1,3.9,16.9,3.9
		c9.2,0,19.2-4.4,21.7-12.7c4.6,8.1,13.4,12.9,22.7,12.7C283.8,138.9,290.7,135.9,295.6,130.4L295.6,130.4z M156.2,112.3
		c1.2-3,2.1-5.8,3.7-10.4c1.2,4.9,1.6,7.9,2.3,10.2C160.4,112.3,158.3,112.6,156.2,112.3L156.2,112.3z M269.9,107.7
		c0-6,2.3-8.8,4.4-8.8c0.7,0,2.3-0.5,3.2,2.5c0.2,0.9,0.5,1.6,0.5,2.5c0,1.8-0.9,2.3-2.1,2.3v0.5c-2.1,0.7-4.2,1.4-6,2.3V107.7
		L269.9,107.7z M291,120.4c-3.9,3.5-6.7,5.8-11.3,5.8c-3.2-0.5-6-2.5-7.2-5.8c3.9-1.4,19-6.9,23.1-8.8c0,3.5,0.2,7.4,0.2,7.4v7.4
		L291,120.4L291,120.4z M360.1,126.4c-2.3,0.2-4.4-1.6-4.4-3.9c0-0.2,0-0.2,0-0.5c0.2-1.8,0.7-4.4,6.2-6c0.2,2.1,0.5,3.9,0.5,3.9
		v1.6c0.2,1.4,0.2,2.5,0.2,3.9C361.9,126,361,126.2,360.1,126.4"/>
	<path class="st5" d="M247.7,91.8c-3-0.9-6-1.2-9-1.4c-3.9,0-8.1,0.9-11.6,2.5c-4.2,2.5-6.9,6-7.2,10.2c-0.5,6,2.8,8.8,7.4,10.9
		c3.2,1.8,6,3.5,8.1,4.4c2.3,1.4,4.6,2.5,4.4,5.8c-0.2,3-3,5.3-7.6,5.3c-5.1-0.5-9.7-2.8-13.4-6.2l-0.2,9.2c4.4,1.8,9,2.8,13.6,2.5
		c8.6,0,19.2-3.9,19.2-13.6c0.2-7.4-5.1-10.2-8.1-11.8c-3.2-1.4-6.2-3-7.9-3.5c-1.4-0.9-4.4-1.8-4.2-5.3c0.2-3,3.9-4.4,7.6-4.4
		c3,0,6,0.9,8.8,2.3"/>
	<path class="st5" d="M171.5,75.8l-19.6,2.5c0.2,4.6-0.7,9.5-2.3,13.9c-4.2,11.8-10.6,31.4-15.9,42.8h12.3c0.7-4.2,1.8-8.3,3.5-12.3
		l18.3-0.5c0.9,4.2,1.8,8.3,2.3,12.7h16.4c-2.5-7.2-4.6-14.6-6.2-22l-8.3-37.4L171.5,75.8z M151.8,115.6l9-25.7l5.3,25.4"/>
	<path class="st5" d="M218.6,91.8l-0.5,8.8c-3.7-0.5-7.2,0.9-9.7,3.5c-2.5,2.5-4.2,6.5-4.6,13.6c-0.5,5.8-0.5,11.6-0.2,17.6h-13.9
		c0.9-5.5,1.4-11.3,1.4-17.1l0.5-6.9c0.5-5.5,0.2-11.1-0.5-16.6l12.3-0.5c0.7,2.5,0.9,5.3,0.7,7.9C209.6,93.6,214.7,91.8,218.6,91.8
		"/>
	<path class="st5" d="M393.6,78.4L380.9,76c0.9,5.1,1.8,10.2,2.3,15.3l3,27.5c0.7,5.3,0.9,10.9,0.9,16.2H401
		c-1.2-5.3-1.8-10.6-2.3-16.2"/>
	<path class="st5" d="M337,135.2c-0.7-5.3-1.2-10.6-1.4-16.2l-0.5-14.3c-0.5-7.9-4.9-12.3-12.3-12.3c-5.1,0-9.9,2.3-12.9,6.5
		c-0.2-2.3-0.7-4.4-1.4-6.5L297.4,92c0.9,5.3,1.4,10.9,1.4,16.2L299,119c0.2,5.3,0,10.9-0.5,16.2h13.9c-0.7-5.3-1.2-10.6-1.4-16.2
		l-0.5-12.3c-0.2-3.9,2.5-7.2,6.5-7.4l0,0c3.9,0,5.8,2.5,6,6.5l0.5,13.2c0.2,5.3,0.2,10.9-0.2,16.2"/>
	<path class="st5" d="M380.4,135.2c-1.6-4.9-2.8-10.2-3-15.3l-0.7-8.8c-0.7-10.4-5.1-17.6-22.2-17.6c-3.7,0-7.2,0.5-10.6,1.4
		l0.5,7.9c3.5-2.3,7.4-3.7,11.6-3.9c4.6,0,8.6,2.1,8.8,8.8c-4.6,0.5-9,1.6-13.2,3.5c-5.1,2.1-10.6,6.5-9.9,13.6
		c0.5,7.9,6.5,11.3,13.9,11.3c4.6,0.2,9-1.8,11.8-5.3c0.5,1.6,0.9,3,1.4,4.4H380.4z M360.1,129.4c-3.7,0.5-7.2-2.5-7.6-6.2
		c0-0.2,0-0.5,0-0.7c0-4.9,3-8.8,12.5-10.2l0.5,7.4c0.2,2.5,0.2,4.4,0.5,6.5C364.7,128.3,362.4,129.2,360.1,129.4"/>
	<path class="st5" d="M285.6,93.1c-3.2-2.1-6.9-3.2-10.6-3c-9,0-21,6.5-20.8,23.1c0.2,17.1,13.2,22.2,22.2,22.2
		c6.2,0.2,12.5-2.3,16.6-6.9l-2.8-3.9c-3,2.8-6.7,4.4-10.9,4.4c-5.8-0.5-9.5-4.4-11.6-10.4l25.2-9.2
		C292.6,101,289.6,96.2,285.6,93.1L285.6,93.1z M277.1,109.3l-9.9,3.9c-0.2-1.8-0.5-3.7-0.5-5.8c0-10.2,5.5-11.8,7.4-11.8
		c3-0.5,6,1.8,6.5,4.9C281.7,104.7,281.2,108.2,277.1,109.3"/>
	<polygon class="st5" points="217.7,223.3 226.2,210.3 256.3,230 247.7,242.9 	"/>
	<polygon class="st6" points="214.9,218.9 220.7,209.9 259.1,234.8 253,243.8 	"/>
	<polygon class="st5" points="281.9,264.2 290.5,251.2 320.5,271.1 312,284.1 	"/>
	<polygon class="st6" points="279.2,259.8 284.9,250.8 323.3,276 317.3,284.8 	"/>
</g>
</svg>
